<svg xmlns="http://www.w3.org/2000/svg" xmlns:xlink="http://www.w3.org/1999/xlink" width="191.4118" height="216.7" viewBox="0 0 191.4118 216.7"><defs><style>.a{fill:none;}.b,.e{fill:#0f1322;}.b{stroke:#fff;stroke-miterlimit:10;stroke-width:2px;}.c{isolation:isolate;}.d{clip-path:url(#a);}.f{fill:#fff;}.g{clip-path:url(#b);}.h{clip-path:url(#c);}</style><clipPath id="a"><polygon class="a" points="10.578 56.517 95.152 7.368 180.278 56.516 95.705 105.665 10.578 56.517"/></clipPath><clipPath id="b"><polygon class="a" points="7.706 158.541 7.982 61.194 92.706 110.11 92.43 207.457 7.706 158.541"/></clipPath><clipPath id="c"><polygon class="a" points="98.706 207.94 98.428 109.949 183.706 60.714 183.984 158.704 98.706 207.94"/></clipPath></defs><path class="b" d="M100.218,4.0968,183.571,52.12a9.9148,9.9148,0,0,1,3.1391,2.8574l.1706.2407a9.9132,9.9132,0,0,1,1.8252,5.7039l.2686,94.5412a9.913,9.913,0,0,1-4.9643,8.6176l-82.9231,47.7754a9.9117,9.9117,0,0,1-4.9479,1.3236l-.59,0a9.9128,9.9128,0,0,1-4.95-1.3236L7.67,164.0774A9.9132,9.9132,0,0,1,2.7059,155.46l.27-95.0278a9.9121,9.9121,0,0,1,1.3407-4.95h0a9.9123,9.9123,0,0,1,3.5992-3.5971l82.38-47.774A9.9131,9.9131,0,0,1,100.218,4.0968Z"/><g class="c"><g class="d"><path class="e" d="M176.7286,54.4669,98.6952,9.4143a7.7846,7.7846,0,0,0-7.0639,0L14.0988,54.4713c-1.941,1.128-1.937,2.96.023,4.0917l78.0334,45.0526a7.798,7.798,0,0,0,7.07.0036L176.758,58.5623c1.941-1.128,1.9307-2.9638-.0294-4.0954"/><polyline class="f" points="74.356 81.089 84.923 74.948 106.204 87.234 95.636 93.375 74.356 81.089"/><polyline class="f" points="31.789 56.513 95.221 19.651 148.431 50.372 137.857 56.517 148.493 62.658 127.352 74.944 116.715 68.803 106.141 74.948 95.498 68.803 84.923 74.948 74.28 68.803 84.854 62.658 74.217 56.517 53.076 68.803 31.789 56.513"/><polyline class="e" points="127.213 50.372 105.933 38.086 84.792 50.372 106.072 62.658 127.213 50.372"/></g></g><g class="c"><g class="g"><path class="e" d="M89.4171,107.9055,11.2724,62.7886c-1.9629-1.1333-3.56-.23-3.5665,2.0251l-.2546,89.7942a7.8111,7.8111,0,0,0,3.5434,6.1374l78.1447,45.1168c1.9629,1.1333,3.56.2231,3.5665-2.0324l.2546-89.7943a7.7977,7.7977,0,0,0-3.5434-6.13"/><polyline class="f" points="18.706 140.18 18.834 91.661 28.706 97.36 28.741 85.236 71.706 110.042 71.67 122.042 82.706 128.414 82.672 140.439 61.706 128.335 61.742 116.23 39.706 103.508 39.562 152.389 61.706 165.174 61.742 152.81 50.706 146.438 50.741 134.31 82.706 152.765 82.602 189.346 29.706 158.806 29.741 146.495 19.097 140.351"/></g></g><g class="c"><g class="h"><path class="f" d="M140.57,110.4707l-20.864,12.0458.1359,47.956,20.8641-12.0459L140.57,110.18m-31.864,79-.208-73.1068,53.208-30.72.0357,12.3239,10.9643-6.33.1321,49.1524-10.1321,5.85.0346,12.3682-53.21,30.7207M179.9073,63.2124,102.2221,108.064a7.7383,7.7383,0,0,0-3.5162,6.09l.2531,89.2662c.0063,2.2422,1.5878,3.1508,3.5391,2.0242l77.6853-44.8516a7.7652,7.7652,0,0,0,3.5225-6.1013l-.2531-89.2662c-.0063-2.2423-1.5942-3.14-3.5455-2.0132"/></g></g></svg>